<svg width="19" height="26" viewBox="0 0 19 26" fill="none" xmlns="http://www.w3.org/2000/svg">
<path d="M9.5 0.5C6.98044 0.5 4.56408 1.55357 2.78249 3.42892C1.00089 5.30428 0 7.84781 0 10.5C0 17.2499 8.37188 24.8749 8.72813 25.1999C8.94322 25.3936 9.21696 25.5 9.5 25.5C9.78304 25.5 10.0568 25.3936 10.2719 25.1999C10.6875 24.8749 19 17.2499 19 10.5C19 7.84781 17.9991 5.30428 16.2175 3.42892C14.4359 1.55357 12.0196 0.5 9.5 0.5ZM9.5 22.5624C6.97062 20.0624 2.375 14.675 2.375 10.5C2.375 8.51085 3.12567 6.6032 4.46186 5.19668C5.79806 3.79017 7.61033 2.99999 9.5 2.99999C11.3897 2.99999 13.2019 3.79017 14.5381 5.19668C15.8743 6.6032 16.625 8.51085 16.625 10.5C16.625 14.675 12.0294 20.0749 9.5 22.5624ZM9.5 5.49998C8.56054 5.49998 7.64218 5.79323 6.86104 6.34263C6.07991 6.89204 5.47109 7.67293 5.11157 8.58656C4.75206 9.50018 4.65799 10.5055 4.84127 11.4754C5.02455 12.4453 5.47694 13.3362 6.14124 14.0355C6.80554 14.7348 7.65191 15.211 8.57332 15.4039C9.49473 15.5968 10.4498 15.4978 11.3177 15.1194C12.1857 14.7409 12.9275 14.1001 13.4495 13.2778C13.9714 12.4556 14.25 11.4889 14.25 10.5C14.25 9.17389 13.7496 7.90212 12.8588 6.96445C11.968 6.02677 10.7598 5.49998 9.5 5.49998ZM9.5 13C9.03027 13 8.57109 12.8533 8.18052 12.5786C7.78995 12.3039 7.48554 11.9135 7.30579 11.4567C7.12603 10.9999 7.07899 10.4972 7.17063 10.0122C7.26227 9.52729 7.48847 9.08184 7.82062 8.73221C8.15277 8.38258 8.57596 8.14447 9.03666 8.04801C9.49737 7.95155 9.9749 8.00106 10.4089 8.19028C10.8428 8.37949 11.2138 8.69993 11.4747 9.11105C11.7357 9.52217 11.875 10.0055 11.875 10.5C11.875 11.163 11.6248 11.7989 11.1794 12.2677C10.734 12.7366 10.1299 13 9.5 13Z" fill="#00AD1C"/>
</svg>
