<svg width="55" height="55" viewBox="0 0 55 55" fill="none" xmlns="http://www.w3.org/2000/svg">
<path d="M46.5859 46.6289C44.9483 46.8913 43.3494 47.3345 41.7319 47.6954C41.0086 47.8568 40.2572 47.908 39.5276 48.0455C39.1007 48.1269 38.6569 48.2775 38.2143 48.3381C38.3495 48.2955 38.4719 48.2582 38.5559 48.2255C39.1224 48.0075 39.7124 47.8601 40.2928 47.6877C41.2476 47.4036 42.2534 47.2632 43.0993 46.6997C43.3338 46.5444 43.2749 46.0873 42.9426 46.1215C41.9895 46.2208 41.0161 46.3496 40.0693 46.5149C39.0076 46.6997 37.9753 47.0209 36.9152 47.2134C36.7755 47.239 36.6343 47.2654 36.4945 47.2903C37.1511 47.1041 37.8092 46.9132 38.4519 46.6834C38.7732 46.5686 39.3445 46.4212 39.27 45.9771C39.2466 45.8452 39.0962 45.7459 38.9704 45.7489C37.9085 45.7792 36.8702 46.0866 35.8223 46.2425C35.2915 46.3217 34.7575 46.3948 34.225 46.4739C34.3538 46.4071 34.4626 46.3241 34.52 46.2162C34.6193 46.0299 34.4998 45.7211 34.253 45.7489C32.0146 46.0051 29.8072 46.4365 27.6077 46.9007C27.8903 46.768 28.1541 46.6067 28.3887 46.4025C28.598 46.2209 28.4258 45.8716 28.1681 45.8732C27.139 45.8795 26.0942 46.095 25.0698 46.2054C23.9025 46.3327 22.7429 46.5305 21.5942 46.775C21.1937 46.8588 20.7921 46.938 20.3897 47.0125C20.8179 46.8818 21.2448 46.7467 21.6703 46.6074C22.0553 46.48 21.8969 45.9391 21.5058 46.009C20.6226 46.165 19.7191 46.2091 18.8327 46.3505C17.8905 46.5003 16.9715 46.789 16.0433 47.0017C15.7872 47.0598 15.531 47.1173 15.2749 47.1747C15.9129 46.966 16.5462 46.7425 17.1516 46.4513C17.4295 46.3179 17.2945 45.8576 16.9934 45.8732C16.3692 45.9049 15.7794 46.123 15.1739 46.2573C14.5095 46.4025 13.8499 46.5375 13.1933 46.7067C13.212 46.539 13.1141 46.3606 12.8969 46.3698C12.0757 46.4055 11.1957 46.6725 10.4195 46.9301C9.73657 47.1577 8.9076 47.2485 8.33171 47.7024C8.15167 47.8444 8.25566 48.1783 8.46824 48.2209C8.91061 48.3093 9.32977 48.1558 9.75193 48.0385C10.4878 47.8337 11.2639 47.6994 12.0198 47.5806C12.1269 47.5635 12.2325 47.5441 12.338 47.5246C12.0818 47.617 11.8241 47.707 11.5649 47.7886C11.1164 47.9291 10.6662 48.0337 10.258 48.2743C10.0763 48.3807 10.0343 48.7152 10.258 48.8106C10.882 49.0754 11.5432 48.7422 12.1534 48.5289C13.1499 48.1789 14.2815 48.0135 15.3153 47.7815C15.8866 47.6527 16.4562 47.516 17.0259 47.381C16.0666 47.6806 15.115 47.9988 14.1805 48.3674C13.8747 48.4878 13.8872 48.9907 14.2628 48.9775C14.7751 48.9573 15.2595 48.8425 15.7468 48.6856C16.3229 48.5004 16.9077 48.344 17.4993 48.2168C18.6885 47.9585 19.8774 47.7078 21.0774 47.5107C22.3394 47.3042 23.5781 47.0077 24.8509 46.8525C25.3927 46.7849 25.9361 46.7105 26.4793 46.6469C26.4437 46.6545 26.4064 46.6631 26.3721 46.6702C25.697 46.7934 25.0388 47.0023 24.3604 47.1258C23.7644 47.2344 23.1496 47.5292 22.5738 47.7217C22.0274 47.9041 21.4391 47.9895 20.9346 48.2744C20.61 48.4576 20.8429 48.8992 21.1737 48.8417C24.1804 48.3209 27.1453 47.5861 30.1411 47.0139C29.528 47.1776 28.9148 47.3446 28.3157 47.5472C27.9959 47.655 27.6808 47.7722 27.3626 47.8871C26.8023 47.998 26.2434 48.1331 25.7777 48.3986C25.4657 48.5771 25.6783 49.0467 26.0167 48.966C26.5554 48.8371 27.0769 48.6554 27.5954 48.4669C27.9974 48.3917 28.3994 48.3288 28.7565 48.2358C29.902 47.9362 31.0569 47.6761 32.2243 47.4766C33.3248 47.2881 34.41 47.0628 35.5183 46.9086C35.5523 46.9038 35.5866 46.8976 35.6206 46.893C34.042 47.3392 32.4974 47.8491 30.9421 48.3677C30.7061 48.446 30.6098 48.8085 30.8676 48.935C31.3395 49.1655 32.1451 48.7992 32.6139 48.682C33.7704 48.3932 34.9454 48.2001 36.1175 47.9873C37.2336 47.7847 38.3371 47.5403 39.4424 47.3153C38.8866 47.5015 38.3215 47.6514 37.7706 47.8709C37.4647 47.992 37.103 48.0557 36.889 48.3225C36.7336 48.5174 36.7972 48.7487 37.0255 48.8418C37.6093 49.0809 38.2083 48.9854 38.8045 48.8418C39.7204 48.6215 40.644 48.474 41.5784 48.3567C42.3964 48.2527 43.2176 47.9873 44.0187 47.7955C44.9237 47.579 45.8316 47.375 46.7507 47.2282C47.1447 47.1653 46.9771 46.567 46.5859 46.6289Z" fill="#787878"/>
<path d="M12.3984 12.7746C11.5586 13.9785 11.1597 15.4819 10.7033 16.8556C10.2175 18.3108 9.61987 19.7025 9.52985 21.2525C9.51889 21.4372 9.80453 21.4357 9.81387 21.2525C9.9025 19.7329 10.5015 18.3574 10.9766 16.931C11.4283 15.579 11.8179 14.102 12.6452 12.9183C12.7493 12.7677 12.5024 12.6256 12.3984 12.7746ZM14.3729 11.1378C14.3265 12.4542 13.6961 13.8084 13.3019 15.0542C12.8656 16.4319 12.2308 17.7396 11.7216 19.0902C11.2404 20.3692 11.0913 21.6941 10.8274 23.0267C10.6986 23.6733 10.5232 24.2686 10.2748 24.8787C10.042 25.4546 9.98768 26.1414 9.73309 26.6995C9.67712 26.7368 9.64457 26.8072 9.69109 26.881C9.69571 26.8896 9.70043 26.8974 9.70667 26.9052C9.75791 26.9905 9.90228 27.0053 9.95191 26.9052C10.1723 26.4597 10.2173 25.9171 10.3648 25.443C10.59 24.7258 10.891 24.0785 11.0541 23.3358C11.3614 21.9333 11.5043 20.5207 11.9963 19.1664C12.521 17.7244 13.1915 16.3443 13.6557 14.8799C14.0361 13.6791 14.6135 12.4079 14.6586 11.138C14.6648 10.9531 14.3792 10.9547 14.3729 11.1378ZM13.3763 20.5407C13.3112 21.3168 13.0115 22.1248 12.7818 22.8637C12.5148 23.7283 12.3162 24.6123 12.0988 25.4894C11.7201 27.0183 10.5791 28.1942 10.3835 29.8015C10.3618 29.9839 10.6474 29.9817 10.6692 29.8015C10.8678 28.1661 12.0414 26.9066 12.431 25.3357C12.6499 24.4533 12.8625 23.57 13.1311 22.7022C13.3468 22.0014 13.5998 21.2765 13.6604 20.5407C13.676 20.3575 13.3904 20.3584 13.3763 20.5407ZM14.9845 21.7227C14.5872 22.1799 14.4287 22.7209 14.2828 23.2999C14.047 24.2531 13.7365 25.1844 13.4556 26.125C12.9479 27.8201 12.0027 29.4213 11.9514 31.2257C11.9451 31.4096 12.2308 31.4089 12.237 31.2257C12.2852 29.5089 13.2103 28.0762 13.6543 26.4634C13.8731 25.6687 14.1417 24.8887 14.3698 24.0961C14.5842 23.3573 14.6649 22.5253 15.1864 21.923C15.3058 21.7857 15.1057 21.5831 14.9845 21.7227ZM16.0836 21.965C16.0121 23.8914 15.4145 25.7634 15.1228 27.6563C14.9892 28.5218 14.5282 29.2792 14.3948 30.1556C14.3451 30.4745 14.2317 30.8252 14.2302 31.1459C14.2302 31.291 14.2768 31.884 14.1589 31.9577C14.0035 32.0547 14.1464 32.3015 14.3031 32.2038C14.5842 32.0284 14.5127 31.4229 14.5157 31.1459C14.5251 30.1323 14.9582 29.1535 15.2967 28.2237C15.4658 27.758 15.4782 27.2271 15.5823 26.7413C15.7033 26.1725 15.8493 25.6089 15.9626 25.0369C16.0728 24.4866 16.0868 23.9309 16.1783 23.3776C16.2575 22.9057 16.3506 22.4446 16.3677 21.965C16.3738 21.781 16.0898 21.7826 16.0836 21.965ZM18.3624 20.113C18.2412 21.2773 17.8734 22.4842 17.5769 23.6157C17.2727 24.7729 17.026 25.9465 16.7589 27.1129C16.4749 28.3524 16.568 29.6416 16.3197 30.8857C16.1039 31.9693 15.9859 33.1148 15.9409 34.2177C15.9332 34.4024 16.2187 34.4009 16.2249 34.2177C16.2759 33.0341 16.4175 31.8561 16.6486 30.6941C16.8954 29.4522 16.807 28.1756 17.0912 26.9322C17.3581 25.771 17.6111 24.6077 17.9138 23.4544C18.1963 22.3716 18.5316 21.2269 18.648 20.1131C18.6665 19.9299 18.3809 19.9322 18.3624 20.113ZM22.7801 11.2798C22.7708 11.4941 22.6467 11.5484 22.6373 11.7075C22.6187 12.0016 22.5597 12.2786 22.5146 12.5674C22.434 13.0718 22.3997 13.5856 22.3097 14.0917C22.108 15.2264 21.7618 16.3223 21.3876 17.4104C21.0492 18.3946 20.6938 19.3733 20.3616 20.3598C19.9999 21.4386 19.8913 22.6355 19.7205 23.7562C19.3759 26.0272 18.783 28.2593 18.3329 30.5118C17.9059 32.6376 17.3316 34.7718 17.0801 36.9249C17.0599 37.1073 17.3439 37.105 17.3641 36.9249C17.6218 34.709 18.2225 32.508 18.6603 30.32C19.1291 27.9801 19.7174 25.6695 20.0745 23.3084C20.2343 22.2622 20.3848 21.1889 20.7217 20.1813C21.0818 19.1126 21.4714 18.054 21.8331 16.9868C22.2042 15.897 22.4866 14.7895 22.6714 13.6541C22.7491 13.1744 22.7723 12.6848 22.8669 12.2082C22.9275 11.8977 23.0532 11.5966 23.064 11.2798C23.0704 11.0959 22.7864 11.0967 22.7801 11.2798ZM24.4891 11.8496C24.486 12.8408 24.1942 13.734 24.0032 14.6987C23.7921 15.7675 23.6525 16.8487 23.4445 17.9189C23.0207 20.0929 22.6745 22.2995 22.3578 24.4921C22.2896 24.964 22.1064 25.4328 22.0397 25.917C21.959 26.5147 21.8085 27.0813 21.6564 27.6641C21.3599 28.7935 21.0679 29.9235 20.7668 31.052C20.4703 32.1649 20.1086 33.2516 19.7905 34.3552C19.6399 34.8737 19.5328 35.4029 19.4412 35.9339C19.3667 36.3685 19.2223 36.7683 19.2178 37.2099C19.2146 37.3938 19.5002 37.3938 19.5018 37.2099C19.5081 36.7527 19.682 36.2063 19.7611 35.746C19.8527 35.2128 19.9909 34.6881 20.1415 34.1682C20.4581 33.0669 20.8152 31.9817 21.1101 30.8705C21.4112 29.7419 21.7015 28.6103 21.9996 27.4802C22.13 26.9834 22.2465 26.5016 22.3163 25.9932C22.3939 25.4149 22.5894 24.8686 22.6717 24.2997C22.9884 22.1071 23.347 19.9028 23.7723 17.7289C23.9787 16.6656 24.1169 15.5898 24.328 14.5264C24.5095 13.6059 24.7719 12.7965 24.7734 11.8496C24.7747 11.6656 24.4891 11.6656 24.4891 11.8496ZM26.9107 12.7049C26.9076 15.2375 26.0802 17.5503 25.4128 19.9594C25.1085 21.0507 25.0884 22.0698 25.0279 23.1882C24.9597 24.4696 24.8183 25.7246 24.5653 26.985C24.3246 28.1928 23.8963 29.301 23.5393 30.4761C23.1652 31.7032 22.9975 33.0148 22.7321 34.2706C22.4729 35.5008 22.2695 36.7434 22.0165 37.975C21.8892 38.596 21.852 39.4055 21.5989 39.9829C21.4514 40.3166 21.377 40.693 21.3552 41.0563C21.3428 41.2402 21.6283 41.2395 21.6393 41.0563C21.6687 40.572 21.8877 40.1544 21.9622 39.6825C22.0616 39.0439 22.2168 38.4129 22.3471 37.7786C22.614 36.4693 22.8282 35.1491 23.1154 33.8436C23.3731 32.6679 23.5344 31.4662 23.8854 30.3145C24.0608 29.7424 24.2718 29.1798 24.4752 28.6178C24.719 27.9503 24.809 27.2208 24.9471 26.527C25.4098 24.2095 25.1443 21.8282 25.8272 19.548C26.5041 17.2957 27.1932 15.0798 27.1963 12.7048C27.1962 12.5209 26.9107 12.5209 26.9107 12.7049ZM28.7688 14.6615C28.7192 15.0053 28.3358 15.3724 28.3358 15.6968C28.3358 16.1889 28.3141 16.6538 28.2504 17.1435C28.1713 17.7612 28.1045 18.3838 27.9959 18.9962C27.8887 19.5954 27.6295 20.1425 27.5442 20.7518C27.2042 23.1866 27.1607 25.7292 26.4529 28.0971C26.1067 29.2613 25.7186 30.3967 25.4159 31.5766C25.0994 32.8114 24.8758 34.0695 24.6258 35.3183C24.3913 36.4965 24.1431 37.6638 23.9553 38.8505C23.7814 39.9527 23.4911 41.0835 23.4911 42.1964C23.4911 42.3804 23.7769 42.3804 23.7769 42.1964C23.7769 41.6895 23.8606 40.9182 23.9662 40.4245C24.0905 39.8456 24.1774 39.2571 24.2705 38.6721C24.4583 37.4829 24.7175 36.3141 24.9534 35.1336C25.205 33.8786 25.4424 32.6213 25.7605 31.381C26.0586 30.2113 26.456 29.0867 26.8007 27.9326C27.5039 25.5739 27.5179 22.9863 27.8562 20.5601C27.9385 19.9671 28.2086 19.4184 28.3142 18.8277C28.3995 18.3496 28.4507 17.8622 28.5067 17.3795C28.564 16.8594 28.62 16.4093 28.62 15.8831C28.62 15.4857 28.9863 15.1395 29.0437 14.7368C29.0684 14.5575 28.7936 14.4798 28.7688 14.6615ZM30.7573 16.6934C30.7573 17.8661 30.7371 18.9907 30.5383 20.1518C30.3335 21.3548 30.1207 22.5547 29.9391 23.7624C29.7483 25.0321 29.4672 26.284 29.2841 27.5553C29.1057 28.8065 28.9861 30.0561 28.7238 31.2955C28.2332 33.6138 27.4725 35.8662 26.9168 38.1689C26.6374 39.3192 26.5226 40.509 26.3037 41.6716C26.1189 42.6596 25.6143 43.5429 25.5072 44.5457C25.4931 44.5674 25.4855 44.5927 25.4855 44.6186V44.7607C25.4855 44.9454 25.7634 44.9438 25.7712 44.7607C25.8208 43.6261 26.4184 42.6068 26.625 41.5001C26.8454 40.3289 26.9742 39.1413 27.2551 37.9809C27.8295 35.5951 28.618 33.2659 29.1056 30.8569C29.3383 29.6998 29.4315 28.5238 29.5992 27.3557C29.7806 26.0884 30.0633 24.8372 30.2543 23.5698C30.4344 22.3682 30.6516 21.1731 30.8565 19.9755C31.0428 18.882 31.0428 17.7993 31.0428 16.6933C31.0429 16.5102 30.7573 16.5102 30.7573 16.6934ZM32.8949 18.4032C32.8949 19.6411 32.8839 20.8767 32.7101 22.1054C32.5439 23.2618 32.2707 24.395 32.1326 25.5592C31.8392 28.0358 31.4046 30.5056 30.6673 32.8913C30.3195 34.0183 29.8336 35.1289 29.5666 36.2769C29.2964 37.4334 29.3817 38.6356 29.1568 39.7951C28.9551 40.8421 28.8324 41.9008 28.5561 42.933C28.2859 43.9435 28.3031 44.9852 28.0564 46.005C28.0129 46.1843 28.2875 46.2595 28.3311 46.0819C28.5609 45.1319 28.5391 44.1523 28.775 43.2141C29.0373 42.1787 29.2081 41.1355 29.3928 40.0832C29.5946 38.9299 29.593 37.7532 29.7918 36.5967C30.0044 35.3666 30.5665 34.1581 30.9421 32.9676C31.6701 30.6594 32.1156 28.2355 32.3873 25.8326C32.5348 24.5109 32.8344 23.2272 33.0222 21.9138C33.1882 20.7535 33.1789 19.5738 33.1806 18.4034C33.1805 18.22 32.8949 18.22 32.8949 18.4032ZM35.3164 20.3979C35.3024 21.5574 35.127 22.6961 34.9112 23.8332C34.7234 24.8196 34.4052 25.7836 34.2421 26.7739C34.177 27.1682 34.1802 27.5749 34.177 27.9737C34.1724 28.5489 34.0186 29.1279 33.9008 29.689C33.6695 30.7741 33.415 31.8506 33.2659 32.9519C33.1308 33.9406 33.1324 34.9163 32.9073 35.8958C32.6621 36.9691 32.204 37.9812 31.8643 39.0244C31.2527 40.9025 30.5152 42.9105 30.4734 44.9035C30.4687 45.0867 30.7544 45.0867 30.7575 44.9035C30.801 42.8584 31.5925 40.7799 32.2197 38.8519C32.5349 37.8865 32.9352 36.9582 33.1836 35.9725C33.4492 34.9146 33.4305 33.8397 33.5763 32.7671C33.7129 31.7549 33.9597 30.7599 34.1755 29.7642C34.2831 29.2694 34.3768 28.7717 34.4566 28.2717C34.5435 27.7375 34.4642 27.1773 34.5527 26.6332C34.7173 25.6297 35.0448 24.644 35.2358 23.6421C35.4405 22.5694 35.5896 21.4905 35.6021 20.3977C35.6035 20.214 35.3195 20.214 35.3164 20.3979ZM37.311 22.6774C37.311 26.3284 36.4635 29.856 35.8006 33.4293C35.7214 33.8592 35.6019 34.2814 35.4839 34.7013C35.3908 35.0319 35.186 35.4432 35.175 35.7856C35.1471 36.5789 35.085 37.4976 34.8941 38.2645C34.7 39.0353 34.3446 39.7811 34.0776 40.5309C33.7949 41.3256 33.75 42.0738 33.75 42.9091C33.75 43.0929 34.0341 43.0929 34.0341 42.9091C34.0341 42.0165 34.1303 41.2317 34.43 40.3873C34.7017 39.6284 35.0322 38.8855 35.2278 38.1023C35.3924 37.4442 35.3894 36.6991 35.4514 36.0215C35.5445 34.9977 36.0056 33.9966 36.167 32.9737C36.4339 31.2723 36.8407 29.5998 37.1434 27.9047C37.4539 26.1575 37.5966 24.4508 37.5966 22.6773C37.5965 22.4942 37.311 22.4942 37.311 22.6774ZM39.877 24.6721C39.877 24.4881 39.5928 24.4889 39.5913 24.6721C39.5619 27.3598 38.7873 29.9901 38.1958 32.5909C37.9383 33.7178 37.7953 34.8434 37.3886 35.9346C37.2055 36.4297 37.263 37.0305 37.1232 37.5504C36.9383 38.235 36.7786 38.9141 36.476 39.5599C36.3982 39.726 36.6436 39.8704 36.7228 39.7042C37.1822 38.7186 37.5718 37.5062 37.6061 36.4212C37.6246 35.8189 37.9133 35.1529 38.0997 34.5818C38.2999 33.9732 38.3388 33.2949 38.4707 32.667C39.0108 30.0724 39.8118 27.5081 39.8708 24.8373C39.8724 24.8304 39.8771 24.8241 39.8771 24.8149V24.6721H39.877ZM41.4851 26.1391C41.0878 26.4727 41.3313 27.1581 41.271 27.6021C41.1422 28.5513 40.7322 29.5571 40.7307 30.5141C40.7292 31.7358 40.5119 32.879 40.2728 34.0727C40.1858 34.505 40.1657 34.883 40.1501 35.3224C40.1315 35.8221 39.9639 36.2637 39.8816 36.7449C39.8505 36.9242 40.1254 37.001 40.1564 36.8202C40.2697 36.1573 40.4374 35.5659 40.4451 34.8813C40.4592 33.8367 40.8735 32.7935 40.9806 31.752C41.0381 31.197 40.9916 30.6429 41.0861 30.091C41.1669 29.6177 41.274 29.1472 41.3686 28.6769C41.4509 28.2749 41.6031 27.7906 41.5859 27.3792C41.5751 27.1005 41.4354 26.5511 41.6869 26.34C41.8282 26.2221 41.6247 26.021 41.4851 26.1391ZM42.2986 28.5185C42.2986 29.8247 42.2116 31.1139 41.8949 32.3845C41.7768 32.8571 41.6326 33.2661 41.5968 33.7551C41.5503 34.3985 41.3408 35.0001 41.3019 35.6418C41.2896 35.8266 41.5752 35.825 41.586 35.6418C41.6218 35.0559 41.8656 34.549 41.8748 33.9655C41.884 33.2561 42.1603 32.6367 42.2768 31.9476C42.474 30.7842 42.5826 29.7006 42.5826 28.5185C42.5825 28.3354 42.2986 28.3354 42.2986 28.5185ZM18.0767 11.1378C17.996 12.3858 17.0103 13.3282 16.9373 14.5567C16.9265 14.7406 17.2121 14.7399 17.223 14.5567C17.2649 13.8326 17.7088 13.3871 17.9308 12.7429C18.1092 12.2174 18.3266 11.6959 18.3623 11.1379C18.3748 10.9538 18.0891 10.9554 18.0767 11.1378ZM19.2177 11.2798C19.1074 12.7204 18.0193 13.9653 17.9354 15.412C17.9244 15.5952 18.2102 15.5944 18.221 15.412C18.3033 13.977 19.3931 12.7196 19.5017 11.2798C19.5157 11.0959 19.2315 11.0974 19.2177 11.2798ZM21.0742 11.2418C21.0353 11.4483 20.9267 11.5857 20.8335 11.7642C20.7435 11.9389 20.7311 12.2027 20.6767 12.3928C20.5185 12.9439 20.3276 13.5927 20.0683 14.0972C19.8726 14.4791 19.7065 14.8626 19.5916 15.2762C19.5016 15.5952 19.6521 16.3815 19.4022 16.5933C19.2609 16.7113 19.4643 16.9124 19.6025 16.7952C19.8089 16.6205 19.8446 16.4265 19.8089 16.1603C19.7142 15.4835 20.0184 14.8293 20.3134 14.2409C20.5368 13.7993 20.6408 13.3259 20.8147 12.861C20.9165 12.59 21 12.3126 21.0647 12.0305C21.1251 11.7659 21.299 11.5819 21.3503 11.3181C21.3831 11.1378 21.1082 11.0618 21.0742 11.2418Z" fill="#00AD1C"/>
<path d="M15.9949 22.7147C14.0902 22.7147 12.0289 21.694 11.7137 19.4146C11.397 17.1296 12.9678 14.8788 15.2156 14.3976C15.263 14.3871 15.3114 14.3816 15.3599 14.3813C15.6005 14.3813 15.7465 14.5202 15.8273 14.6366L15.9142 14.7623L16.0632 14.7895C18.1696 15.1861 19.5652 16.5335 19.7963 18.3916C20.0199 20.1705 18.9162 22.3017 16.9169 22.6379C16.6122 22.6891 16.3038 22.7148 15.9949 22.7147ZM14.7237 15.8071C13.5873 16.383 12.5162 17.7163 12.8516 19.2858C13.1434 20.658 14.3758 21.6172 15.8476 21.6172C16.1781 21.6172 16.5073 21.5669 16.8224 21.466C18.1667 21.0391 18.9551 19.6474 18.6184 18.297C18.2475 16.8161 17.0536 15.9461 15.253 15.8491C15.1801 15.8451 15.1133 15.8289 15.0341 15.7964L14.8775 15.7304L14.7237 15.8071Z" fill="#096518"/>
<path d="M28.4039 46.8447C26.996 46.8447 25.5493 46.2921 24.1026 45.2032L24.0389 45.1552L23.9597 45.1373C23.8634 45.1163 23.7734 45.0643 23.6927 44.9836L16.4188 37.7096C15.6814 36.9722 14.9612 36.1409 14.2658 35.3377C12.8408 33.6923 11.3802 32.0018 9.56859 30.8277C9.27361 30.636 9.28145 30.3627 9.314 30.2162L9.33881 30.0989L9.28919 29.9887C7.37214 25.6851 7.09896 20.3895 7.20595 16.7044C7.2138 16.4941 7.3007 16.338 7.46828 16.2387L7.60331 16.1581L7.63908 16.006C7.65616 15.9361 7.68871 15.8694 7.73844 15.8034C9.44591 13.516 11.4375 11.7371 13.4989 10.6568C13.5953 10.6071 13.6899 10.5822 13.7831 10.5822C13.8079 10.5822 13.8327 10.5837 13.8575 10.5869L14.0066 10.6093L14.1292 10.5184C14.2192 10.4525 14.3294 10.4159 14.4567 10.4106C15.4688 10.3694 16.3846 10.3501 17.2555 10.3501C20.7294 10.3501 23.6415 10.6877 26.1579 11.3823C26.1796 11.3924 26.1951 11.3986 26.2121 11.4048L26.2727 11.425L26.3349 11.4242C26.487 11.4242 26.6329 11.5289 26.9107 11.751C30.1643 14.3696 33.1183 17.3446 35.9776 20.221C38.0049 22.263 39.911 24.1824 41.9259 25.9962L42.0159 26.0785L42.137 26.0894C42.2922 26.1065 42.4085 26.1943 42.4939 26.3619C44.0897 29.4989 44.2792 32.1154 43.0762 34.3582L43 34.4972L43.0481 34.6471C43.1041 34.8194 43.0481 34.9916 42.879 35.1733C39.5307 38.7597 36.9694 41.1612 33.067 44.7826C33.0111 44.8346 32.974 44.8874 32.9476 44.9261L32.9289 44.9533C32.859 45.0464 32.8234 45.0814 32.7844 45.111C31.3223 46.2619 29.8476 46.8447 28.4039 46.8447ZM14.1029 11.6485C12.1624 12.6684 10.2749 14.3262 8.78624 16.3177C8.72415 16.4007 8.65432 16.4606 8.56581 16.5056L8.3703 16.605L8.36407 16.8254C8.2212 22.1746 8.86541 26.326 10.3307 29.5176C10.371 29.6063 10.3912 29.7027 10.3897 29.8001L10.3851 29.9965L10.5449 30.1098C12.0399 31.1777 13.2831 32.5904 14.4861 33.9564C15.1367 34.6968 15.8056 35.4575 16.5165 36.1675L24.5667 44.217L24.652 44.2433C24.7373 44.2713 24.8026 44.3046 24.8646 44.3535C26.0382 45.2608 27.2241 45.7204 28.3929 45.7204C29.5617 45.7204 30.7416 45.2601 31.8979 44.352C31.9131 44.3443 31.9276 44.3354 31.9415 44.3256L31.9554 44.3164L31.9835 44.293L33.1539 43.0853C36.0365 40.1096 38.5232 37.5421 41.4353 34.9149L41.5284 34.8311L41.5501 34.7054C41.5641 34.6301 41.5951 34.5563 41.6464 34.4834C43.4811 31.7981 42.5342 29.0908 41.6603 27.2879L41.6122 27.1871L41.516 27.1297C41.4803 27.1088 41.4429 27.0886 41.4088 27.0599C37.3823 23.7683 33.5247 19.9435 29.7931 16.2437C28.5915 15.0531 27.3497 13.8222 26.1033 12.6098L26.0241 12.5322L25.9155 12.5105L25.858 12.5019C23.3978 11.8244 20.6749 11.5092 17.2817 11.5092C16.4092 11.5092 15.4764 11.5294 14.4256 11.5729L14.2516 11.5597L14.1554 11.6148C14.1369 11.6244 14.1199 11.6362 14.1029 11.6485Z" fill="#096518"/>
<path d="M18.1108 18.9737C17.8299 18.9737 17.6715 18.9333 17.5597 18.8332L17.4496 18.7338L17.2648 18.8906L17.2633 18.8207C17.2366 18.816 17.2102 18.81 17.1841 18.8028C17.06 18.7602 16.9327 18.6841 16.8224 18.5824C16.0991 18.0717 15.4672 16.8081 15.2841 15.9234C15.1941 15.4794 15.2173 14.9563 15.2406 14.451C15.2515 14.2166 15.2624 13.9869 15.2624 13.7664C15.2624 13.5879 15.2562 13.4039 15.2484 13.2177C15.2313 12.7287 15.2127 12.232 15.3151 11.8044C15.4689 11.161 15.9143 9.58697 16.723 8.87219C17.6342 8.06577 18.7472 7.69785 19.9269 7.30748L20.0525 7.26559C20.7868 7.02271 21.5785 6.8938 22.3436 6.8938C22.8807 6.8938 23.3868 6.9575 23.8495 7.08319C24.0745 7.14366 24.2933 7.20038 24.5076 7.25549L24.5743 7.27343C25.6639 7.5552 26.6046 7.79808 27.6261 8.33282C28.6644 8.87616 29.6503 9.46677 30.6514 10.0745L30.9324 10.2451L31.1342 9.98744C32.0175 8.86746 32.9317 8.08908 34.0106 7.53651C35.4106 6.82011 37.0283 6.48635 38.2809 6.27602C38.7332 6.19904 39.1911 6.16033 39.6499 6.16032C40.7738 6.16032 41.8465 6.39236 42.9346 6.65167C44.9464 7.12895 46.9395 8.79538 46.8619 11.0562C46.7393 14.6505 43.7015 15.6456 41.9008 15.9187C41.5651 15.9679 41.2263 15.9923 40.8871 15.9917C38.7962 15.9917 36.1976 15.0952 33.936 13.5942C33.4052 13.2419 32.8945 12.8477 32.4008 12.4665C32.1059 12.2376 31.8093 12.0086 31.5067 11.7867L31.1915 11.5561L30.9773 11.8798C30.7368 12.2446 30.5008 12.6172 30.2633 12.992C30.081 13.2839 29.8963 13.5742 29.7091 13.8629C29.6115 14.0128 29.478 14.0895 29.3133 14.0895C29.1131 14.0895 28.9035 13.9708 28.8149 13.8062C28.7467 13.6813 28.7591 13.5492 28.8538 13.4041C29.0664 13.0766 29.2728 12.749 29.4778 12.4239C29.709 12.0568 29.9388 11.6935 30.1732 11.3373L30.3783 11.0245L29.5802 10.5076C28.3307 9.69268 26.9165 8.76745 25.5163 8.43692L25.2975 8.38406C24.3179 8.15053 23.2081 7.88584 22.1245 7.88584C21.4214 7.88584 20.8081 7.9953 20.251 8.21949C20.0306 8.30801 19.7807 8.38643 19.5136 8.46946C18.9331 8.65101 18.3479 8.83352 17.8962 9.15793C17.2318 9.63682 16.9353 10.3027 16.6496 10.9469L16.5472 11.1743C15.9464 12.5008 15.9619 15.2375 16.5782 16.4995C16.9677 17.295 17.3279 17.5325 17.9845 17.9167C18.087 17.9772 18.1319 18.0067 18.149 18.0192L18.2762 18.1177L18.4827 17.8855L18.5168 17.9966C18.5168 17.9966 18.5463 17.9935 18.5945 17.9935C19.0291 17.9935 19.0524 18.3963 19.0524 18.4777C19.0524 18.5584 19.0291 18.962 18.5945 18.962C18.5137 18.962 18.4299 18.9643 18.3445 18.9682C18.2675 18.9706 18.1901 18.9737 18.1108 18.9737ZM39.8505 7.06535C38.6755 7.06535 37.2612 7.34862 35.529 7.9315C34.1847 8.3832 33.0749 9.17802 32.0349 10.4338L31.7741 10.7473L32.1125 10.9763C32.5285 11.2588 32.932 11.577 33.3232 11.8859C33.907 12.3477 34.5108 12.8235 35.1906 13.2122C35.7883 13.553 37.8652 14.68 39.4998 14.8569C40.0773 14.919 40.5863 14.9493 41.0584 14.9493C42.9258 14.9493 44.2823 14.4579 45.0911 13.487C45.6949 12.7644 46.0411 11.462 45.8951 10.4601C45.7973 9.78098 45.4914 9.25397 45.0134 8.93417C44.8271 8.80999 44.6502 8.67722 44.481 8.54842C44.1565 8.30318 43.826 8.05331 43.4052 7.84212C42.5483 7.41372 41.2491 7.19791 40.7292 7.12422C40.4543 7.0848 40.1594 7.06535 39.8505 7.06535Z" fill="#096518"/>
</svg>
