<svg width="38" height="38" viewBox="0 0 38 38" fill="none" xmlns="http://www.w3.org/2000/svg">
<g filter="url(#filter0_d_2_1260)">
<path fill-rule="evenodd" clip-rule="evenodd" d="M30.6687 8.50764H29.0302L33.82 1.56683C33.8952 1.45947 33.9484 1.33803 33.9767 1.20961C34.0049 1.08119 34.0075 0.948362 33.9844 0.818896C33.9613 0.689431 33.9129 0.565925 33.842 0.4556C33.7712 0.345275 33.6793 0.250345 33.5717 0.17636C33.3529 0.025655 33.084 -0.0315644 32.8237 0.0171473C32.5634 0.0658589 32.3326 0.216561 32.1815 0.436478L26.5988 8.50764H11.3987L5.81849 0.436478C5.66752 0.216454 5.43671 0.0656647 5.17633 0.0169458C4.91595 -0.0317731 4.64708 0.025524 4.42827 0.17636C4.32071 0.250345 4.22881 0.345275 4.15795 0.4556C4.08709 0.565925 4.03869 0.689431 4.01557 0.818896C3.99246 0.948362 3.9951 1.08119 4.02333 1.20961C4.05157 1.33803 4.10483 1.45947 4.18002 1.56683L8.97032 8.50764H7.33184C6.61928 8.4978 5.92289 8.72258 5.3477 9.14808C4.77252 9.57358 4.34974 10.1767 4.14316 10.8665C3.93657 11.5563 3.95738 12.2953 4.20244 12.9721C4.4475 13.6489 4.90353 14.2267 5.50172 14.6184V25.0894C5.51352 26.3986 6.03709 27.6499 6.95807 28.5699C7.87905 29.49 9.12261 30.0041 10.4171 30H27.5769C28.8723 30.0055 30.1171 29.4919 31.0392 28.5717C31.9612 27.6515 32.4855 26.3994 32.4973 25.0894V14.6174C33.0949 14.2256 33.5504 13.6479 33.7952 12.9715C34.04 12.2951 34.0608 11.5565 33.8544 10.8671C33.6481 10.1777 33.2258 9.57479 32.6512 9.14922C32.0766 8.72365 31.3808 8.49848 30.6687 8.50764ZM30.4984 25.0894C30.4917 25.8668 30.1806 26.6098 29.6333 27.1557C29.086 27.7016 28.3471 28.0059 27.5784 28.0019H10.4171C9.64846 28.0059 8.90954 27.7016 8.36224 27.1557C7.81493 26.6098 7.50387 25.8668 7.49718 25.0894V15.1672H30.4969V25.0884L30.4984 25.0894ZM30.6687 13.1682H7.32886C6.97991 13.1682 6.64524 13.028 6.39849 12.7784C6.15174 12.5288 6.01312 12.1904 6.01312 11.8374C6.01312 11.4845 6.15174 11.146 6.39849 10.8965C6.64524 10.6469 6.97991 10.5067 7.32886 10.5067H30.6687C31.0175 10.5067 31.352 10.6469 31.5987 10.8963C31.8453 11.1458 31.9839 11.4841 31.9839 11.8369C31.9839 12.1897 31.8453 12.5281 31.5987 12.7775C31.352 13.027 31.0175 13.1672 30.6687 13.1672V13.1682ZM19.0007 26.7947C18.8701 26.7956 18.7405 26.7705 18.6195 26.7206C18.4985 26.6708 18.3884 26.5974 18.2955 26.5044C18.2026 26.4115 18.1287 26.301 18.0782 26.1791C18.0276 26.0573 18.0013 25.9265 18.0008 25.7944V17.6675C18.0008 17.3993 18.1061 17.142 18.2937 16.9524C18.4812 16.7627 18.7355 16.6561 19.0007 16.6561C19.266 16.6561 19.5203 16.7627 19.7078 16.9524C19.8954 17.142 20.0007 17.3993 20.0007 17.6675V25.7934C20.0002 25.9257 19.9738 26.0566 19.9231 26.1786C19.8724 26.3006 19.7984 26.4112 19.7053 26.5042C19.6122 26.5971 19.5018 26.6705 19.3806 26.7202C19.2593 26.7699 19.1296 26.7949 18.9988 26.7937L19.0007 26.7947ZM24.0006 26.7947C23.8699 26.7956 23.7404 26.7705 23.6193 26.7206C23.4983 26.6708 23.3882 26.5974 23.2953 26.5044C23.2024 26.4115 23.1286 26.301 23.078 26.1791C23.0274 26.0573 23.0011 25.9265 23.0006 25.7944V17.6675C23.0006 17.3993 23.106 17.142 23.2935 16.9524C23.481 16.7627 23.7354 16.6561 24.0006 16.6561C24.2658 16.6561 24.5201 16.7627 24.7077 16.9524C24.8952 17.142 25.0005 17.3993 25.0005 17.6675V25.7934C25 25.9257 24.9736 26.0566 24.923 26.1786C24.8723 26.3006 24.7982 26.4112 24.7051 26.5042C24.612 26.5971 24.5017 26.6705 24.3804 26.7202C24.2592 26.7699 24.1294 26.7949 23.9986 26.7937L24.0006 26.7947ZM14.0004 26.7947C13.8698 26.7956 13.7402 26.7705 13.6192 26.7206C13.4982 26.6708 13.3881 26.5974 13.2952 26.5044C13.2023 26.4115 13.1284 26.301 13.0779 26.1791C13.0273 26.0573 13.001 25.9265 13.0005 25.7944V17.6675C13.0005 17.3993 13.1058 17.142 13.2933 16.9524C13.4809 16.7627 13.7352 16.6561 14.0004 16.6561C14.2656 16.6561 14.52 16.7627 14.7075 16.9524C14.895 17.142 15.0004 17.3993 15.0004 17.6675V25.7934C14.9999 25.9257 14.9735 26.0566 14.9228 26.1786C14.8721 26.3006 14.7981 26.4112 14.705 26.5042C14.6119 26.5971 14.5015 26.6705 14.3803 26.7202C14.259 26.7699 14.1293 26.7949 13.9984 26.7937L14.0004 26.7947Z" fill="white"/>
</g>
<defs>
<filter id="filter0_d_2_1260" x="0" y="0" width="38" height="38" filterUnits="userSpaceOnUse" color-interpolation-filters="sRGB">
<feFlood flood-opacity="0" result="BackgroundImageFix"/>
<feColorMatrix in="SourceAlpha" type="matrix" values="0 0 0 0 0 0 0 0 0 0 0 0 0 0 0 0 0 0 127 0" result="hardAlpha"/>
<feOffset dy="4"/>
<feGaussianBlur stdDeviation="2"/>
<feComposite in2="hardAlpha" operator="out"/>
<feColorMatrix type="matrix" values="0 0 0 0 0 0 0 0 0 0 0 0 0 0 0 0 0 0 0.25 0"/>
<feBlend mode="normal" in2="BackgroundImageFix" result="effect1_dropShadow_2_1260"/>
<feBlend mode="normal" in="SourceGraphic" in2="effect1_dropShadow_2_1260" result="shape"/>
</filter>
</defs>
</svg>
