<svg width="19" height="25" viewBox="0 0 19 25" fill="none" xmlns="http://www.w3.org/2000/svg">
<path d="M9.5 0C6.98044 0 4.56408 1.05357 2.78249 2.92892C1.00089 4.80428 0 7.34781 0 9.99997C0 16.7499 8.37188 24.3749 8.72813 24.6999C8.94322 24.8936 9.21696 25 9.5 25C9.78304 25 10.0568 24.8936 10.2719 24.6999C10.6875 24.3749 19 16.7499 19 9.99997C19 7.34781 17.9991 4.80428 16.2175 2.92892C14.4359 1.05357 12.0196 0 9.5 0ZM9.5 22.0624C6.97062 19.5624 2.375 14.175 2.375 9.99997C2.375 8.01085 3.12567 6.1032 4.46186 4.69668C5.79806 3.29017 7.61033 2.49999 9.5 2.49999C11.3897 2.49999 13.2019 3.29017 14.5381 4.69668C15.8743 6.1032 16.625 8.01085 16.625 9.99997C16.625 14.175 12.0294 19.5749 9.5 22.0624ZM9.5 4.99998C8.56054 4.99998 7.64218 5.29323 6.86104 5.84263C6.07991 6.39204 5.47109 7.17293 5.11157 8.08656C4.75206 9.00018 4.65799 10.0055 4.84127 10.9754C5.02455 11.9453 5.47694 12.8362 6.14124 13.5355C6.80554 14.2348 7.65191 14.711 8.57332 14.9039C9.49473 15.0968 10.4498 14.9978 11.3177 14.6194C12.1857 14.2409 12.9275 13.6001 13.4495 12.7778C13.9714 11.9556 14.25 10.9889 14.25 9.99997C14.25 8.67389 13.7496 7.40212 12.8588 6.46445C11.968 5.52677 10.7598 4.99998 9.5 4.99998ZM9.5 12.5C9.03027 12.5 8.57109 12.3533 8.18052 12.0786C7.78995 11.8039 7.48554 11.4135 7.30579 10.9567C7.12603 10.4999 7.07899 9.9972 7.17063 9.51224C7.26227 9.02729 7.48847 8.58184 7.82062 8.23221C8.15277 7.88258 8.57596 7.64447 9.03666 7.54801C9.49737 7.45155 9.9749 7.50106 10.4089 7.69028C10.8428 7.87949 11.2138 8.19993 11.4747 8.61105C11.7357 9.02217 11.875 9.50552 11.875 9.99997C11.875 10.663 11.6248 11.2989 11.1794 11.7677C10.734 12.2366 10.1299 12.5 9.5 12.5Z" fill="#096518"/>
</svg>
