<svg width="25" height="26" viewBox="0 0 25 26" fill="none" xmlns="http://www.w3.org/2000/svg">
<path d="M23.9565 17.7233L21.7242 15.491C21.0588 14.8309 20.1606 14.4587 19.2234 14.4547C18.2861 14.4507 17.3848 14.8152 16.7138 15.4697C16.3557 15.8297 15.8834 16.0538 15.378 16.1032C14.8726 16.1527 14.3658 16.0244 13.9447 15.7406C12.2829 14.6315 10.8552 13.2066 9.74291 11.5469C9.46404 11.1211 9.34044 10.6123 9.39293 10.106C9.44542 9.59979 9.67079 9.12711 10.0311 8.76764C10.6796 8.09599 11.0394 7.19717 11.0335 6.26357C11.0276 5.32997 10.6565 4.43576 9.99963 3.77233L7.76733 1.54002C7.09901 0.873982 6.19395 0.5 5.25042 0.5C4.30689 0.5 3.40183 0.873982 2.73351 1.54002L2.09122 2.18333C-1.25722 5.5318 -1.0066 12.5717 5.96019 19.5345C10.161 23.7363 14.3891 25.4958 17.8177 25.4958C18.827 25.5294 19.8329 25.3618 20.7767 25.0028C21.7205 24.6437 22.5835 24.1004 23.3153 23.4045L23.9586 22.7612C24.6258 22.0926 25.0004 21.1864 25 20.2418C24.9996 19.2972 24.6243 18.3914 23.9565 17.7233ZM22.5218 21.3264L21.8785 21.9697C19.2403 24.6079 13.4171 24.126 7.39292 18.1007C1.36877 12.0755 0.88578 6.24817 3.52395 3.60998L4.16218 2.96768C4.44954 2.68135 4.83867 2.52058 5.24433 2.52058C5.64999 2.52058 6.03912 2.68135 6.32649 2.96768L8.55878 5.2C8.84093 5.48356 9.00108 5.86616 9.00506 6.26616C9.00904 6.66615 8.85654 7.05187 8.58009 7.34099C7.89445 8.03101 7.46676 8.93569 7.36867 9.90348C7.27058 10.8713 7.50805 11.8434 8.0413 12.6569C9.30513 14.5482 10.9303 16.171 12.8235 17.4321C13.6346 17.9654 14.6041 18.2043 15.5702 18.1088C16.5362 18.0133 17.4402 17.5893 18.1313 16.9075C18.4198 16.6277 18.8066 16.4724 19.2085 16.4749C19.6104 16.4774 19.9952 16.6374 20.2804 16.9207L22.5126 19.153C22.6565 19.2948 22.7709 19.4636 22.8493 19.6498C22.9277 19.836 22.9685 20.0358 22.9693 20.2378C22.9702 20.4398 22.9311 20.64 22.8542 20.8268C22.7774 21.0136 22.6645 21.1834 22.5218 21.3264Z" fill="#00AD1C"/>
</svg>
