<svg width="25" height="25" viewBox="0 0 25 25" fill="none" xmlns="http://www.w3.org/2000/svg">
<path d="M23.9565 17.2233L21.7242 14.991C21.0588 14.3309 20.1606 13.9587 19.2234 13.9547C18.2861 13.9507 17.3848 14.3152 16.7138 14.9697C16.3557 15.3297 15.8834 15.5538 15.378 15.6032C14.8726 15.6527 14.3658 15.5244 13.9447 15.2406C12.2829 14.1315 10.8552 12.7066 9.74291 11.0469C9.46404 10.6211 9.34044 10.1123 9.39293 9.60602C9.44542 9.09979 9.67079 8.62711 10.0311 8.26764C10.6796 7.59599 11.0394 6.69717 11.0335 5.76357C11.0276 4.82997 10.6565 3.93576 9.99963 3.27233L7.76733 1.04002C7.09901 0.373982 6.19395 0 5.25042 0C4.30689 0 3.40183 0.373982 2.73351 1.04002L2.09122 1.68333C-1.25722 5.0318 -1.0066 12.0717 5.96019 19.0345C10.161 23.2363 14.3891 24.9958 17.8177 24.9958C18.827 25.0294 19.8329 24.8618 20.7767 24.5028C21.7205 24.1437 22.5835 23.6004 23.3153 22.9045L23.9586 22.2612C24.6258 21.5926 25.0004 20.6864 25 19.7418C24.9996 18.7972 24.6243 17.8914 23.9565 17.2233ZM22.5218 20.8264L21.8785 21.4697C19.2403 24.1079 13.4171 23.626 7.39292 17.6007C1.36877 11.5755 0.88578 5.74817 3.52395 3.10998L4.16218 2.46768C4.44954 2.18135 4.83867 2.02058 5.24433 2.02058C5.64999 2.02058 6.03912 2.18135 6.32649 2.46768L8.55878 4.7C8.84093 4.98356 9.00108 5.36616 9.00506 5.76616C9.00904 6.16615 8.85654 6.55187 8.58009 6.84099C7.89445 7.53101 7.46676 8.43569 7.36867 9.40348C7.27058 10.3713 7.50805 11.3434 8.0413 12.1569C9.30513 14.0482 10.9303 15.671 12.8235 16.9321C13.6346 17.4654 14.6041 17.7043 15.5702 17.6088C16.5362 17.5133 17.4402 17.0893 18.1313 16.4075C18.4198 16.1277 18.8066 15.9724 19.2085 15.9749C19.6104 15.9774 19.9952 16.1374 20.2804 16.4207L22.5126 18.653C22.6565 18.7948 22.7709 18.9636 22.8493 19.1498C22.9277 19.336 22.9685 19.5358 22.9693 19.7378C22.9702 19.9398 22.9311 20.14 22.8542 20.3268C22.7774 20.5136 22.6645 20.6834 22.5218 20.8264Z" fill="#096518"/>
</svg>
