<svg width="30" height="28" viewBox="0 0 30 28" fill="none" xmlns="http://www.w3.org/2000/svg">
<path d="M22.7422 27.9997C22.3499 27.9997 21.9551 27.9075 21.5915 27.7218L15.0327 24.3643L8.40799 27.7206C8.00041 27.9315 7.53995 28.0262 7.07955 27.9938C6.61915 27.9613 6.17749 27.8031 5.80537 27.5373C5.4308 27.2749 5.13988 26.915 4.96604 26.499C4.7922 26.0829 4.7425 25.6276 4.82264 25.1853L6.07535 18.0779L0.748909 12.9827C0.416832 12.6705 0.182006 12.2734 0.0714192 11.8371C-0.0391678 11.4008 -0.021029 10.943 0.123751 10.5162C0.265047 10.0889 0.527156 9.70882 0.880065 9.41967C1.23297 9.13052 1.66242 8.94394 2.11922 8.8813L9.45072 7.84427L12.7841 1.33949C13.2041 0.512675 14.0524 0 15.0004 0C15.9483 0 16.7966 0.512675 17.2166 1.33949L20.496 7.80573L27.8815 8.8813C28.3383 8.94394 28.7677 9.13052 29.1206 9.41967C29.4735 9.70882 29.7357 10.0889 29.8769 10.5162C30.0212 10.943 30.039 11.4007 29.9284 11.8369C29.8179 12.2731 29.5834 12.6702 29.2518 12.9827L23.9457 18.016L25.1781 25.1864C25.2575 25.6287 25.2074 26.0838 25.0337 26.4998C24.8599 26.9157 24.5694 27.2756 24.1953 27.5384C23.7728 27.837 23.2644 27.9984 22.7422 27.9997ZM2.4228 11.3104L7.72764 16.3437C8.3096 16.8972 8.57598 17.6914 8.43919 18.4715L7.18768 25.58L7.85003 26.6871L7.29087 25.6536L13.8484 22.2973C14.2031 22.1159 14.5977 22.021 14.9984 22.0208C15.3991 22.0206 15.7938 22.1151 16.1487 22.2961L22.7074 25.6536L22.8106 25.58L21.5579 18.4726C21.4906 18.0883 21.52 17.6938 21.6438 17.323C21.7675 16.9522 21.9818 16.6162 22.2683 16.3437L27.5743 11.3104L27.5347 11.1901L20.2032 10.1531C19.8067 10.0966 19.4303 9.9473 19.1061 9.71806C18.782 9.48882 18.5198 9.18646 18.3421 8.83692L15.0627 2.37068C15.0531 2.352 15.0423 2.33331 14.998 2.33331L11.6538 8.83692C11.4767 9.18641 11.215 9.48878 10.8912 9.71805C10.5674 9.94731 10.1913 10.0966 9.7951 10.1531L2.46119 11.1901L1.58405 12.1454L2.4228 11.3104Z" fill="#096518"/>
</svg>
